<?xml version="1.0" encoding="UTF-8"?><svg xmlns="http://www.w3.org/2000/svg" xmlns:xlink="http://www.w3.org/1999/xlink" fill-opacity="1" color-rendering="auto" color-interpolation="auto" text-rendering="auto" stroke="black" stroke-linecap="square" width="3182" stroke-miterlimit="10" shape-rendering="auto" stroke-opacity="1" fill="black" stroke-dasharray="none" font-weight="normal" stroke-width="1" height="2560" font-family="'Dialog'" font-style="normal" stroke-linejoin="miter" font-size="12px" stroke-dashoffset="0" image-rendering="auto">
  <!--Generated by ySVG 2.6-->
  <defs id="genericDefs"/>
  <g>
    <defs id="defs1">
      <linearGradient x1="-91.5816" gradientUnits="userSpaceOnUse" x2="247.9184" y1="381.8944" y2="479.8947" id="linearGradient1" spreadMethod="reflect">
        <stop stop-opacity="1" stop-color="rgb(183,201,227)" offset="0%"/>
        <stop stop-opacity="1" stop-color="rgb(183,201,227)" offset="100%"/>
      </linearGradient>
      <linearGradient x1="398.2264" gradientUnits="userSpaceOnUse" x2="991.7303" y1="381.8944" y2="479.8947" id="linearGradient2" spreadMethod="reflect">
        <stop stop-opacity="1" stop-color="rgb(183,201,227)" offset="0%"/>
        <stop stop-opacity="1" stop-color="rgb(183,201,227)" offset="100%"/>
      </linearGradient>
      <linearGradient x1="1142.0383" gradientUnits="userSpaceOnUse" x2="1481.5383" y1="381.8944" y2="479.8947" id="linearGradient3" spreadMethod="reflect">
        <stop stop-opacity="1" stop-color="rgb(183,201,227)" offset="0%"/>
        <stop stop-opacity="1" stop-color="rgb(183,201,227)" offset="100%"/>
      </linearGradient>
      <linearGradient x1="1631.8464" gradientUnits="userSpaceOnUse" x2="1871.3464" y1="381.8944" y2="479.8947" id="linearGradient4" spreadMethod="reflect">
        <stop stop-opacity="1" stop-color="rgb(183,201,227)" offset="0%"/>
        <stop stop-opacity="1" stop-color="rgb(183,201,227)" offset="100%"/>
      </linearGradient>
      <linearGradient x1="2021.6544" gradientUnits="userSpaceOnUse" x2="2261.1545" y1="381.8944" y2="479.8947" id="linearGradient5" spreadMethod="reflect">
        <stop stop-opacity="1" stop-color="rgb(183,201,227)" offset="0%"/>
        <stop stop-opacity="1" stop-color="rgb(183,201,227)" offset="100%"/>
      </linearGradient>
      <linearGradient x1="2411.4624" gradientUnits="userSpaceOnUse" x2="2615.8062" y1="381.8944" y2="479.8947" id="linearGradient6" spreadMethod="reflect">
        <stop stop-opacity="1" stop-color="rgb(183,201,227)" offset="0%"/>
        <stop stop-opacity="1" stop-color="rgb(183,201,227)" offset="100%"/>
      </linearGradient>
      <linearGradient x1="-355.0928" gradientUnits="userSpaceOnUse" x2="-241.8896" y1="396.3945" y2="465.3946" id="linearGradient7" spreadMethod="reflect">
        <stop stop-opacity="1" stop-color="rgb(232,238,247)" offset="0%"/>
        <stop stop-opacity="1" stop-color="rgb(183,201,227)" offset="100%"/>
      </linearGradient>
      <linearGradient x1="2411.4624" gradientUnits="userSpaceOnUse" x2="2615.8062" y1="581.2013" y2="785.0196" id="linearGradient8" spreadMethod="reflect">
        <stop stop-opacity="1" stop-color="rgb(255,153,0)" offset="0%"/>
        <stop stop-opacity="1" stop-color="rgb(255,153,0)" offset="100%"/>
      </linearGradient>
      <linearGradient x1="2039.2325" gradientUnits="userSpaceOnUse" x2="2243.5764" y1="821.2464" y2="1025.0647" id="linearGradient9" spreadMethod="reflect">
        <stop stop-opacity="1" stop-color="rgb(255,153,0)" offset="0%"/>
        <stop stop-opacity="1" stop-color="rgb(255,153,0)" offset="100%"/>
      </linearGradient>
      <linearGradient x1="1639.8333" gradientUnits="userSpaceOnUse" x2="1844.177" y1="1094.5397" y2="1298.3579" id="linearGradient10" spreadMethod="reflect">
        <stop stop-opacity="1" stop-color="rgb(255,153,0)" offset="0%"/>
        <stop stop-opacity="1" stop-color="rgb(255,153,0)" offset="100%"/>
      </linearGradient>
      <linearGradient x1="1200.0251" gradientUnits="userSpaceOnUse" x2="1423.5515" y1="1370.0792" y2="1573.8976" id="linearGradient11" spreadMethod="reflect">
        <stop stop-opacity="1" stop-color="rgb(255,153,0)" offset="0%"/>
        <stop stop-opacity="1" stop-color="rgb(255,153,0)" offset="100%"/>
      </linearGradient>
      <linearGradient x1="448.9379" gradientUnits="userSpaceOnUse" x2="672.4642" y1="1647.7627" y2="1851.5809" id="linearGradient12" spreadMethod="reflect">
        <stop stop-opacity="1" stop-color="rgb(255,153,0)" offset="0%"/>
        <stop stop-opacity="1" stop-color="rgb(255,153,0)" offset="100%"/>
      </linearGradient>
      <linearGradient x1="-33.5948" gradientUnits="userSpaceOnUse" x2="189.9315" y1="1896.1816" y2="2100" id="linearGradient13" spreadMethod="reflect">
        <stop stop-opacity="1" stop-color="rgb(255,153,0)" offset="0%"/>
        <stop stop-opacity="1" stop-color="rgb(255,153,0)" offset="100%"/>
      </linearGradient>
      <linearGradient x1="1343.7491" gradientUnits="userSpaceOnUse" x2="1688.7179" y1="2666.2656" y2="2910.7502" id="linearGradient14" spreadMethod="reflect">
        <stop stop-opacity="1" stop-color="rgb(183,201,227)" offset="0%"/>
        <stop stop-opacity="1" stop-color="rgb(183,201,227)" offset="100%"/>
      </linearGradient>
      <linearGradient x1="628.4807" gradientUnits="userSpaceOnUse" x2="1021.6917" y1="2189.1204" y2="2470.2263" id="linearGradient15" spreadMethod="reflect">
        <stop stop-opacity="1" stop-color="rgb(255,204,0)" offset="0%"/>
        <stop stop-opacity="1" stop-color="rgb(255,204,0)" offset="100%"/>
      </linearGradient>
      <linearGradient x1="140.7532" gradientUnits="userSpaceOnUse" x2="485.722" y1="2666.2656" y2="2910.7502" id="linearGradient16" spreadMethod="reflect">
        <stop stop-opacity="1" stop-color="rgb(183,201,227)" offset="0%"/>
        <stop stop-opacity="1" stop-color="rgb(183,201,227)" offset="100%"/>
      </linearGradient>
      <linearGradient x1="-535.525" gradientUnits="userSpaceOnUse" x2="-91.0446" y1="2189.1204" y2="2470.2263" id="linearGradient17" spreadMethod="reflect">
        <stop stop-opacity="1" stop-color="rgb(255,204,0)" offset="0%"/>
        <stop stop-opacity="1" stop-color="rgb(255,204,0)" offset="100%"/>
      </linearGradient>
      <clipPath clipPathUnits="userSpaceOnUse" id="clipPath1">
        <path d="M0 0 L3182 0 L3182 2560 L0 2560 L0 0 Z"/>
      </clipPath>
      <clipPath clipPathUnits="userSpaceOnUse" id="clipPath2">
        <path d="M-551 366 L2631 366 L2631 2926 L-551 2926 L-551 366 Z"/>
      </clipPath>
    </defs>
    <g fill="white" text-rendering="geometricPrecision" shape-rendering="geometricPrecision" transform="translate(551,-366)" stroke="white">
      <rect x="-551" width="3182" height="2560" y="366" clip-path="url(#clipPath2)" stroke="none"/>
    </g>
    <g fill="url(#linearGradient1)" text-rendering="geometricPrecision" shape-rendering="geometricPrecision" transform="matrix(1,0,0,1,551,-366)" stroke="url(#linearGradient1)">
      <path d="M-91.5816 381.8944 L247.9184 381.8944 L247.9184 479.8947 L-91.5816 479.8947 Z" stroke="none" clip-path="url(#clipPath2)"/>
    </g>
    <g text-rendering="geometricPrecision" stroke-miterlimit="1.45" stroke-width="6" shape-rendering="geometricPrecision" transform="matrix(1,0,0,1,551,-366)" stroke-linecap="butt">
      <path fill="none" d="M-91.5816 381.8944 L247.9184 381.8944 L247.9184 479.8947 L-91.5816 479.8947 Z" clip-path="url(#clipPath2)"/>
      <text x="-59.8314" font-size="20px" y="425.0346" clip-path="url(#clipPath2)" font-family="'Noto Sans Mono'" stroke="none" stroke-width="1" xml:space="preserve"> [1]    [1]         [1]</text>
      <text x="-59.8314" font-size="20px" y="452.2745" clip-path="url(#clipPath2)" font-family="'Noto Sans Mono'" stroke="none" stroke-width="1" xml:space="preserve">Z    = W   ∙ X   + b</text>
    </g>
    <g fill="url(#linearGradient2)" text-rendering="geometricPrecision" shape-rendering="geometricPrecision" transform="matrix(1,0,0,1,551,-366)" stroke="url(#linearGradient2)">
      <path d="M398.2264 381.8944 L991.7303 381.8944 L991.7303 479.8947 L398.2264 479.8947 Z" stroke="none" clip-path="url(#clipPath2)"/>
    </g>
    <g text-rendering="geometricPrecision" stroke-miterlimit="1.45" stroke-width="6" shape-rendering="geometricPrecision" transform="matrix(1,0,0,1,551,-366)" stroke-linecap="butt">
      <path fill="none" d="M398.2264 381.8944 L991.7303 381.8944 L991.7303 479.8947 L398.2264 479.8947 Z" clip-path="url(#clipPath2)"/>
      <text x="592.9785" font-size="20px" y="425.0346" clip-path="url(#clipPath2)" font-family="'Noto Sans Mono'" stroke="none" stroke-width="1" xml:space="preserve"> [1]         [1]</text>
      <text x="592.9785" font-size="20px" y="452.2745" clip-path="url(#clipPath2)" font-family="'Noto Sans Mono'" stroke="none" stroke-width="1" xml:space="preserve">A    = relu(Z   )</text>
    </g>
    <g fill="url(#linearGradient3)" text-rendering="geometricPrecision" shape-rendering="geometricPrecision" transform="matrix(1,0,0,1,551,-366)" stroke="url(#linearGradient3)">
      <path d="M1142.0383 381.8944 L1481.5383 381.8944 L1481.5383 479.8947 L1142.0383 479.8947 Z" stroke="none" clip-path="url(#clipPath2)"/>
    </g>
    <g text-rendering="geometricPrecision" stroke-miterlimit="1.45" stroke-width="6" shape-rendering="geometricPrecision" transform="matrix(1,0,0,1,551,-366)" stroke-linecap="butt">
      <path fill="none" d="M1142.0383 381.8944 L1481.5383 381.8944 L1481.5383 479.8947 L1142.0383 479.8947 Z" clip-path="url(#clipPath2)"/>
      <text x="1173.7886" font-size="20px" y="425.0346" clip-path="url(#clipPath2)" font-family="'Noto Sans Mono'" stroke="none" stroke-width="1" xml:space="preserve"> [2]    [2]   [1]   [2]</text>
      <text x="1173.7886" font-size="20px" y="452.2745" clip-path="url(#clipPath2)" font-family="'Noto Sans Mono'" stroke="none" stroke-width="1" xml:space="preserve">Z    = W   ∙ A   + b</text>
    </g>
    <g fill="url(#linearGradient4)" text-rendering="geometricPrecision" shape-rendering="geometricPrecision" transform="matrix(1,0,0,1,551,-366)" stroke="url(#linearGradient4)">
      <path d="M1631.8464 381.8944 L1871.3464 381.8944 L1871.3464 479.8947 L1631.8464 479.8947 Z" stroke="none" clip-path="url(#clipPath2)"/>
    </g>
    <g text-rendering="geometricPrecision" stroke-miterlimit="1.45" stroke-width="6" shape-rendering="geometricPrecision" transform="matrix(1,0,0,1,551,-366)" stroke-linecap="butt">
      <path fill="none" d="M1631.8464 381.8944 L1871.3464 381.8944 L1871.3464 479.8947 L1631.8464 479.8947 Z" clip-path="url(#clipPath2)"/>
      <text x="1643.5966" font-size="20px" y="425.0346" clip-path="url(#clipPath2)" font-family="'Noto Sans Mono'" stroke="none" stroke-width="1" xml:space="preserve"> [2]          [2]</text>
      <text x="1643.5966" font-size="20px" y="452.2745" clip-path="url(#clipPath2)" font-family="'Noto Sans Mono'" stroke="none" stroke-width="1" xml:space="preserve">A    = sigma(Z   )</text>
    </g>
    <g fill="url(#linearGradient5)" text-rendering="geometricPrecision" shape-rendering="geometricPrecision" transform="matrix(1,0,0,1,551,-366)" stroke="url(#linearGradient5)">
      <path d="M2021.6544 381.8944 L2261.1545 381.8944 L2261.1545 479.8947 L2021.6544 479.8947 Z" stroke="none" clip-path="url(#clipPath2)"/>
    </g>
    <g text-rendering="geometricPrecision" stroke-miterlimit="1.45" stroke-width="6" shape-rendering="geometricPrecision" transform="matrix(1,0,0,1,551,-366)" stroke-linecap="butt">
      <path fill="none" d="M2021.6544 381.8944 L2261.1545 381.8944 L2261.1545 479.8947 L2021.6544 479.8947 Z" clip-path="url(#clipPath2)"/>
      <text x="2057.4045" font-size="20px" y="425.0346" clip-path="url(#clipPath2)" font-family="'Noto Sans Mono'" stroke="none" stroke-width="1" xml:space="preserve">          [2]</text>
      <text x="2057.4045" font-size="20px" y="452.2745" clip-path="url(#clipPath2)" font-family="'Noto Sans Mono'" stroke="none" stroke-width="1" xml:space="preserve">L = Loss(A   )</text>
    </g>
    <g fill="url(#linearGradient6)" text-rendering="geometricPrecision" shape-rendering="geometricPrecision" transform="matrix(1,0,0,1,551,-366)" stroke="url(#linearGradient6)">
      <path d="M2411.4624 381.8944 L2615.8062 381.8944 L2615.8062 479.8947 L2411.4624 479.8947 Z" stroke="none" clip-path="url(#clipPath2)"/>
    </g>
    <g text-rendering="geometricPrecision" stroke-miterlimit="1.45" stroke-width="6" shape-rendering="geometricPrecision" transform="matrix(1,0,0,1,551,-366)" stroke-linecap="butt">
      <path fill="none" d="M2411.4624 381.8944 L2615.8062 381.8944 L2615.8062 479.8947 L2411.4624 479.8947 Z" clip-path="url(#clipPath2)"/>
      <text x="2447.6345" font-size="20px" y="438.6545" clip-path="url(#clipPath2)" font-family="'Noto Sans Mono'" stroke="none" stroke-width="1" xml:space="preserve">J = mean(L)</text>
    </g>
    <g fill="url(#linearGradient7)" text-rendering="geometricPrecision" shape-rendering="geometricPrecision" transform="matrix(1,0,0,1,551,-366)" stroke="url(#linearGradient7)">
      <path d="M-355.0928 396.3945 L-259.1397 396.3945 L-241.8896 430.8946 L-259.1397 465.3946 L-355.0928 465.3946 Z" stroke="none" clip-path="url(#clipPath2)"/>
    </g>
    <g text-rendering="geometricPrecision" stroke-miterlimit="1.45" shape-rendering="geometricPrecision" transform="matrix(1,0,0,1,551,-366)" stroke-linecap="butt">
      <path fill="none" d="M-355.0928 396.3945 L-259.1397 396.3945 L-241.8896 430.8946 L-259.1397 465.3946 L-355.0928 465.3946 Z" clip-path="url(#clipPath2)"/>
      <text x="-304.4912" font-size="20px" y="438.6545" clip-path="url(#clipPath2)" font-family="'Noto Sans Mono'" stroke="none" xml:space="preserve">X</text>
    </g>
    <g fill="url(#linearGradient8)" text-rendering="geometricPrecision" shape-rendering="geometricPrecision" transform="matrix(1,0,0,1,551,-366)" stroke="url(#linearGradient8)">
      <path d="M2411.4624 581.2013 L2615.8062 581.2013 L2615.8062 785.0196 L2411.4624 785.0196 Z" stroke="none" clip-path="url(#clipPath2)"/>
    </g>
    <g text-rendering="geometricPrecision" stroke-miterlimit="1.45" stroke-dasharray="6,2" shape-rendering="geometricPrecision" transform="matrix(1,0,0,1,551,-366)" stroke-linecap="butt">
      <path fill="none" d="M2411.4624 581.2013 L2615.8062 581.2013 L2615.8062 785.0196 L2411.4624 785.0196 Z" clip-path="url(#clipPath2)"/>
      <text x="2417.4624" font-size="20px" y="608.5813" clip-path="url(#clipPath2)" font-family="'Noto Sans Mono'" stroke-dasharray="none" stroke="none" xml:space="preserve"> </text>
      <text x="2417.4624" font-size="20px" y="635.8213" clip-path="url(#clipPath2)" font-family="'Noto Sans Mono'" stroke-dasharray="none" stroke="none" xml:space="preserve"> </text>
      <text x="2417.4624" font-size="20px" y="663.0612" clip-path="url(#clipPath2)" font-family="'Noto Sans Mono'" stroke-dasharray="none" stroke="none" xml:space="preserve">  ∂J(η)</text>
      <text x="2417.4624" font-size="20px" y="690.3012" clip-path="url(#clipPath2)" font-family="'Noto Sans Mono'" stroke-dasharray="none" stroke="none" xml:space="preserve">------ | </text>
      <text x="2417.4624" font-size="20px" y="717.5412" clip-path="url(#clipPath2)" font-family="'Noto Sans Mono'" stroke-dasharray="none" stroke="none" xml:space="preserve">  ∂η   |</text>
      <text x="2417.4624" font-size="20px" y="744.7812" clip-path="url(#clipPath2)" font-family="'Noto Sans Mono'" stroke-dasharray="none" stroke="none" xml:space="preserve">       |L</text>
    </g>
    <g fill="url(#linearGradient9)" text-rendering="geometricPrecision" shape-rendering="geometricPrecision" transform="matrix(1,0,0,1,551,-366)" stroke="url(#linearGradient9)">
      <path d="M2039.2325 821.2464 L2243.5764 821.2464 L2243.5764 1025.0647 L2039.2325 1025.0647 Z" stroke="none" clip-path="url(#clipPath2)"/>
    </g>
    <g text-rendering="geometricPrecision" stroke-miterlimit="1.45" stroke-dasharray="6,2" shape-rendering="geometricPrecision" transform="matrix(1,0,0,1,551,-366)" stroke-linecap="butt">
      <path fill="none" d="M2039.2325 821.2464 L2243.5764 821.2464 L2243.5764 1025.0647 L2039.2325 1025.0647 Z" clip-path="url(#clipPath2)"/>
      <text x="2045.2325" font-size="20px" y="848.6263" clip-path="url(#clipPath2)" font-family="'Noto Sans Mono'" stroke-dasharray="none" stroke="none" xml:space="preserve"> </text>
      <text x="2045.2325" font-size="20px" y="875.8663" clip-path="url(#clipPath2)" font-family="'Noto Sans Mono'" stroke-dasharray="none" stroke="none" xml:space="preserve"> </text>
      <text x="2045.2325" font-size="20px" y="903.1063" clip-path="url(#clipPath2)" font-family="'Noto Sans Mono'" stroke-dasharray="none" stroke="none" xml:space="preserve">  ∂L(η)</text>
      <text x="2045.2325" font-size="20px" y="930.3463" clip-path="url(#clipPath2)" font-family="'Noto Sans Mono'" stroke-dasharray="none" stroke="none" xml:space="preserve">------ | </text>
      <text x="2045.2325" font-size="20px" y="957.5862" clip-path="url(#clipPath2)" font-family="'Noto Sans Mono'" stroke-dasharray="none" stroke="none" xml:space="preserve">  ∂η   | [2]</text>
      <text x="2045.2325" font-size="20px" y="984.8262" clip-path="url(#clipPath2)" font-family="'Noto Sans Mono'" stroke-dasharray="none" stroke="none" xml:space="preserve">       |A</text>
    </g>
    <g fill="url(#linearGradient10)" text-rendering="geometricPrecision" shape-rendering="geometricPrecision" transform="matrix(1,0,0,1,551,-366)" stroke="url(#linearGradient10)">
      <path d="M1639.8333 1094.5397 L1844.177 1094.5397 L1844.177 1298.3579 L1639.8333 1298.3579 Z" stroke="none" clip-path="url(#clipPath2)"/>
    </g>
    <g text-rendering="geometricPrecision" stroke-miterlimit="1.45" stroke-dasharray="6,2" shape-rendering="geometricPrecision" transform="matrix(1,0,0,1,551,-366)" stroke-linecap="butt">
      <path fill="none" d="M1639.8333 1094.5397 L1844.177 1094.5397 L1844.177 1298.3579 L1639.8333 1298.3579 Z" clip-path="url(#clipPath2)"/>
      <text x="1645.8333" font-size="20px" y="1121.9196" clip-path="url(#clipPath2)" font-family="'Noto Sans Mono'" stroke-dasharray="none" stroke="none" xml:space="preserve"> </text>
      <text x="1645.8333" font-size="20px" y="1149.1595" clip-path="url(#clipPath2)" font-family="'Noto Sans Mono'" stroke-dasharray="none" stroke="none" xml:space="preserve">    [2]</text>
      <text x="1645.8333" font-size="20px" y="1176.3995" clip-path="url(#clipPath2)" font-family="'Noto Sans Mono'" stroke-dasharray="none" stroke="none" xml:space="preserve">  ∂A   (η)</text>
      <text x="1645.8333" font-size="20px" y="1203.6395" clip-path="url(#clipPath2)" font-family="'Noto Sans Mono'" stroke-dasharray="none" stroke="none" xml:space="preserve">---------- | </text>
      <text x="1645.8333" font-size="20px" y="1230.8795" clip-path="url(#clipPath2)" font-family="'Noto Sans Mono'" stroke-dasharray="none" stroke="none" xml:space="preserve">    ∂η     | [2]</text>
      <text x="1645.8333" font-size="20px" y="1258.1195" clip-path="url(#clipPath2)" font-family="'Noto Sans Mono'" stroke-dasharray="none" stroke="none" xml:space="preserve">           |Z</text>
    </g>
    <g fill="url(#linearGradient11)" text-rendering="geometricPrecision" shape-rendering="geometricPrecision" transform="matrix(1,0,0,1,551,-366)" stroke="url(#linearGradient11)">
      <path d="M1200.0251 1370.0792 L1423.5515 1370.0792 L1423.5515 1573.8976 L1200.0251 1573.8976 Z" stroke="none" clip-path="url(#clipPath2)"/>
    </g>
    <g text-rendering="geometricPrecision" stroke-miterlimit="1.45" stroke-dasharray="6,2" shape-rendering="geometricPrecision" transform="matrix(1,0,0,1,551,-366)" stroke-linecap="butt">
      <path fill="none" d="M1200.0251 1370.0792 L1423.5515 1370.0792 L1423.5515 1573.8976 L1200.0251 1573.8976 Z" clip-path="url(#clipPath2)"/>
      <text x="1206.0251" font-size="20px" y="1397.4592" clip-path="url(#clipPath2)" font-family="'Noto Sans Mono'" stroke-dasharray="none" stroke="none" xml:space="preserve"> </text>
      <text x="1206.0251" font-size="20px" y="1424.6992" clip-path="url(#clipPath2)" font-family="'Noto Sans Mono'" stroke-dasharray="none" stroke="none" xml:space="preserve">    [2]</text>
      <text x="1206.0251" font-size="20px" y="1451.9392" clip-path="url(#clipPath2)" font-family="'Noto Sans Mono'" stroke-dasharray="none" stroke="none" xml:space="preserve">  ∂Z   (η)</text>
      <text x="1206.0251" font-size="20px" y="1479.1792" clip-path="url(#clipPath2)" font-family="'Noto Sans Mono'" stroke-dasharray="none" stroke="none" xml:space="preserve">---------- | </text>
      <text x="1206.0251" font-size="20px" y="1506.4192" clip-path="url(#clipPath2)" font-family="'Noto Sans Mono'" stroke-dasharray="none" stroke="none" xml:space="preserve">    ∂η     | [1]</text>
      <text x="1206.0251" font-size="20px" y="1533.6591" clip-path="url(#clipPath2)" font-family="'Noto Sans Mono'" stroke-dasharray="none" stroke="none" xml:space="preserve">           |A</text>
    </g>
    <g fill="url(#linearGradient12)" text-rendering="geometricPrecision" shape-rendering="geometricPrecision" transform="matrix(1,0,0,1,551,-366)" stroke="url(#linearGradient12)">
      <path d="M448.9379 1647.7627 L672.4642 1647.7627 L672.4642 1851.5809 L448.9379 1851.5809 Z" stroke="none" clip-path="url(#clipPath2)"/>
    </g>
    <g text-rendering="geometricPrecision" stroke-miterlimit="1.45" stroke-dasharray="6,2" shape-rendering="geometricPrecision" transform="matrix(1,0,0,1,551,-366)" stroke-linecap="butt">
      <path fill="none" d="M448.9379 1647.7627 L672.4642 1647.7627 L672.4642 1851.5809 L448.9379 1851.5809 Z" clip-path="url(#clipPath2)"/>
      <text x="454.9379" font-size="20px" y="1675.1427" clip-path="url(#clipPath2)" font-family="'Noto Sans Mono'" stroke-dasharray="none" stroke="none" xml:space="preserve"> </text>
      <text x="454.9379" font-size="20px" y="1702.3827" clip-path="url(#clipPath2)" font-family="'Noto Sans Mono'" stroke-dasharray="none" stroke="none" xml:space="preserve">    [1]</text>
      <text x="454.9379" font-size="20px" y="1729.6227" clip-path="url(#clipPath2)" font-family="'Noto Sans Mono'" stroke-dasharray="none" stroke="none" xml:space="preserve">  ∂A   (η)</text>
      <text x="454.9379" font-size="20px" y="1756.8625" clip-path="url(#clipPath2)" font-family="'Noto Sans Mono'" stroke-dasharray="none" stroke="none" xml:space="preserve">---------- | </text>
      <text x="454.9379" font-size="20px" y="1784.1025" clip-path="url(#clipPath2)" font-family="'Noto Sans Mono'" stroke-dasharray="none" stroke="none" xml:space="preserve">    ∂η     | [1]</text>
      <text x="454.9379" font-size="20px" y="1811.3425" clip-path="url(#clipPath2)" font-family="'Noto Sans Mono'" stroke-dasharray="none" stroke="none" xml:space="preserve">           |Z</text>
    </g>
    <g fill="url(#linearGradient13)" text-rendering="geometricPrecision" shape-rendering="geometricPrecision" transform="matrix(1,0,0,1,551,-366)" stroke="url(#linearGradient13)">
      <path d="M-33.5948 1896.1816 L189.9315 1896.1816 L189.9315 2100 L-33.5948 2100 Z" stroke="none" clip-path="url(#clipPath2)"/>
    </g>
    <g text-rendering="geometricPrecision" stroke-miterlimit="1.45" stroke-dasharray="6,2" shape-rendering="geometricPrecision" transform="matrix(1,0,0,1,551,-366)" stroke-linecap="butt">
      <path fill="none" d="M-33.5948 1896.1816 L189.9315 1896.1816 L189.9315 2100 L-33.5948 2100 Z" clip-path="url(#clipPath2)"/>
      <text x="-27.5948" font-size="20px" y="1923.5616" clip-path="url(#clipPath2)" font-family="'Noto Sans Mono'" stroke-dasharray="none" stroke="none" xml:space="preserve"> </text>
      <text x="-27.5948" font-size="20px" y="1950.8016" clip-path="url(#clipPath2)" font-family="'Noto Sans Mono'" stroke-dasharray="none" stroke="none" xml:space="preserve">    [1]</text>
      <text x="-27.5948" font-size="20px" y="1978.0415" clip-path="url(#clipPath2)" font-family="'Noto Sans Mono'" stroke-dasharray="none" stroke="none" xml:space="preserve">  ∂Z   (η)</text>
      <text x="-27.5948" font-size="20px" y="2005.2815" clip-path="url(#clipPath2)" font-family="'Noto Sans Mono'" stroke-dasharray="none" stroke="none" xml:space="preserve">---------- | </text>
      <text x="-27.5948" font-size="20px" y="2032.5215" clip-path="url(#clipPath2)" font-family="'Noto Sans Mono'" stroke-dasharray="none" stroke="none" xml:space="preserve">    ∂η     | </text>
      <text x="-27.5948" font-size="20px" y="2059.7615" clip-path="url(#clipPath2)" font-family="'Noto Sans Mono'" stroke-dasharray="none" stroke="none" xml:space="preserve">           |X</text>
    </g>
    <g fill="url(#linearGradient14)" text-rendering="geometricPrecision" shape-rendering="geometricPrecision" transform="matrix(1,0,0,1,551,-366)" stroke="url(#linearGradient14)">
      <path d="M1343.7491 2666.2656 L1688.7179 2666.2656 L1688.7179 2910.7502 L1343.7491 2910.7502 Z" stroke="none" clip-path="url(#clipPath2)"/>
    </g>
    <g text-rendering="geometricPrecision" stroke-miterlimit="1.45" stroke-width="6" shape-rendering="geometricPrecision" transform="matrix(1,0,0,1,551,-366)" stroke-linecap="butt">
      <path fill="none" d="M1343.7491 2666.2656 L1688.7179 2666.2656 L1688.7179 2910.7502 L1343.7491 2910.7502 Z" clip-path="url(#clipPath2)"/>
      <text x="1378.2338" font-size="20px" y="2714.5481" clip-path="url(#clipPath2)" font-family="'Noto Sans Mono'" stroke="none" stroke-width="1" xml:space="preserve">Multiply to find:</text>
      <text x="1378.2338" font-size="20px" y="2741.7878" clip-path="url(#clipPath2)" font-family="'Noto Sans Mono'" stroke="none" stroke-width="1" xml:space="preserve"> </text>
      <text x="1378.2338" font-size="20px" y="2769.0278" clip-path="url(#clipPath2)" font-family="'Noto Sans Mono'" stroke="none" stroke-width="1" xml:space="preserve">    [2]</text>
      <text x="1378.2338" font-size="20px" y="2796.2678" clip-path="url(#clipPath2)" font-family="'Noto Sans Mono'" stroke="none" stroke-width="1" xml:space="preserve">  ∂Z  (η)</text>
      <text x="1378.2338" font-size="20px" y="2823.5078" clip-path="url(#clipPath2)" font-family="'Noto Sans Mono'" stroke="none" stroke-width="1" xml:space="preserve">--------- | </text>
      <text x="1378.2338" font-size="20px" y="2850.7478" clip-path="url(#clipPath2)" font-family="'Noto Sans Mono'" stroke="none" stroke-width="1" xml:space="preserve">    ∂η    | [2]     [2]</text>
      <text x="1378.2338" font-size="20px" y="2877.9878" clip-path="url(#clipPath2)" font-family="'Noto Sans Mono'" stroke="none" stroke-width="1" xml:space="preserve">          |W    or b</text>
    </g>
    <g fill="url(#linearGradient15)" text-rendering="geometricPrecision" shape-rendering="geometricPrecision" transform="matrix(1,0,0,1,551,-366)" stroke="url(#linearGradient15)">
      <path d="M628.4807 2189.1204 L1021.6917 2189.1204 L1021.6917 2470.2263 L628.4807 2470.2263 Z" stroke="none" clip-path="url(#clipPath2)"/>
    </g>
    <g text-rendering="geometricPrecision" stroke-miterlimit="1.45" stroke-dasharray="6,2" shape-rendering="geometricPrecision" transform="matrix(1,0,0,1,551,-366)" stroke-linecap="butt">
      <path fill="none" d="M628.4807 2189.1204 L1021.6917 2189.1204 L1021.6917 2470.2263 L628.4807 2470.2263 Z" clip-path="url(#clipPath2)"/>
      <text x="634.4807" font-size="20px" y="2216.5005" clip-path="url(#clipPath2)" font-family="'Noto Sans Mono'" stroke-dasharray="none" stroke="none" xml:space="preserve"> </text>
      <text x="634.4807" font-size="20px" y="2243.7405" clip-path="url(#clipPath2)" font-family="'Noto Sans Mono'" stroke-dasharray="none" stroke="none" xml:space="preserve">    [2]</text>
      <text x="634.4807" font-size="20px" y="2270.9805" clip-path="url(#clipPath2)" font-family="'Noto Sans Mono'" stroke-dasharray="none" stroke="none" xml:space="preserve">  ∂Z   (η)</text>
      <text x="634.4807" font-size="20px" y="2298.2205" clip-path="url(#clipPath2)" font-family="'Noto Sans Mono'" stroke-dasharray="none" stroke="none" xml:space="preserve">---------- | </text>
      <text x="634.4807" font-size="20px" y="2325.4604" clip-path="url(#clipPath2)" font-family="'Noto Sans Mono'" stroke-dasharray="none" stroke="none" xml:space="preserve">    ∂η     | [2]     [2]</text>
      <text x="634.4807" font-size="20px" y="2352.7004" clip-path="url(#clipPath2)" font-family="'Noto Sans Mono'" stroke-dasharray="none" stroke="none" xml:space="preserve">           |W    or b</text>
      <text x="634.4807" font-size="20px" y="2379.9402" clip-path="url(#clipPath2)" font-family="'Noto Sans Mono'" stroke-dasharray="none" stroke="none" xml:space="preserve"> </text>
      <text x="634.4807" font-size="20px" y="2407.1802" clip-path="url(#clipPath2)" font-family="'Noto Sans Mono'" stroke-dasharray="none" stroke="none" xml:space="preserve">                    [1]</text>
      <text x="634.4807" font-size="20px" y="2434.4202" clip-path="url(#clipPath2)" font-family="'Noto Sans Mono'" stroke-dasharray="none" stroke="none" xml:space="preserve">KNOWN, it's either A    or 1</text>
    </g>
    <g fill="url(#linearGradient16)" text-rendering="geometricPrecision" shape-rendering="geometricPrecision" transform="matrix(1,0,0,1,551,-366)" stroke="url(#linearGradient16)">
      <path d="M140.7532 2666.2656 L485.722 2666.2656 L485.722 2910.7502 L140.7532 2910.7502 Z" stroke="none" clip-path="url(#clipPath2)"/>
    </g>
    <g text-rendering="geometricPrecision" stroke-miterlimit="1.45" stroke-width="6" shape-rendering="geometricPrecision" transform="matrix(1,0,0,1,551,-366)" stroke-linecap="butt">
      <path fill="none" d="M140.7532 2666.2656 L485.722 2666.2656 L485.722 2910.7502 L140.7532 2910.7502 Z" clip-path="url(#clipPath2)"/>
      <text x="175.2378" font-size="20px" y="2714.5481" clip-path="url(#clipPath2)" font-family="'Noto Sans Mono'" stroke="none" stroke-width="1" xml:space="preserve">Multiply to find:</text>
      <text x="175.2378" font-size="20px" y="2741.7878" clip-path="url(#clipPath2)" font-family="'Noto Sans Mono'" stroke="none" stroke-width="1" xml:space="preserve"> </text>
      <text x="175.2378" font-size="20px" y="2769.0278" clip-path="url(#clipPath2)" font-family="'Noto Sans Mono'" stroke="none" stroke-width="1" xml:space="preserve">    [1]</text>
      <text x="175.2378" font-size="20px" y="2796.2678" clip-path="url(#clipPath2)" font-family="'Noto Sans Mono'" stroke="none" stroke-width="1" xml:space="preserve">  ∂Z  (η)</text>
      <text x="175.2378" font-size="20px" y="2823.5078" clip-path="url(#clipPath2)" font-family="'Noto Sans Mono'" stroke="none" stroke-width="1" xml:space="preserve">--------- | </text>
      <text x="175.2378" font-size="20px" y="2850.7478" clip-path="url(#clipPath2)" font-family="'Noto Sans Mono'" stroke="none" stroke-width="1" xml:space="preserve">    ∂η    | [1]     [1]</text>
      <text x="175.2378" font-size="20px" y="2877.9878" clip-path="url(#clipPath2)" font-family="'Noto Sans Mono'" stroke="none" stroke-width="1" xml:space="preserve">          |W    or b</text>
    </g>
    <g fill="url(#linearGradient17)" text-rendering="geometricPrecision" shape-rendering="geometricPrecision" transform="matrix(1,0,0,1,551,-366)" stroke="url(#linearGradient17)">
      <path d="M-535.525 2189.1204 L-91.0446 2189.1204 L-91.0446 2470.2263 L-535.525 2470.2263 Z" stroke="none" clip-path="url(#clipPath2)"/>
    </g>
    <g text-rendering="geometricPrecision" stroke-miterlimit="1.45" stroke-dasharray="6,2" shape-rendering="geometricPrecision" transform="matrix(1,0,0,1,551,-366)" stroke-linecap="butt">
      <path fill="none" d="M-535.525 2189.1204 L-91.0446 2189.1204 L-91.0446 2470.2263 L-535.525 2470.2263 Z" clip-path="url(#clipPath2)"/>
      <text x="-529.525" font-size="20px" y="2216.5005" clip-path="url(#clipPath2)" font-family="'Noto Sans Mono'" stroke-dasharray="none" stroke="none" xml:space="preserve"> </text>
      <text x="-529.525" font-size="20px" y="2243.7405" clip-path="url(#clipPath2)" font-family="'Noto Sans Mono'" stroke-dasharray="none" stroke="none" xml:space="preserve">    [1]</text>
      <text x="-529.525" font-size="20px" y="2270.9805" clip-path="url(#clipPath2)" font-family="'Noto Sans Mono'" stroke-dasharray="none" stroke="none" xml:space="preserve">  ∂Z   (η)</text>
      <text x="-529.525" font-size="20px" y="2298.2205" clip-path="url(#clipPath2)" font-family="'Noto Sans Mono'" stroke-dasharray="none" stroke="none" xml:space="preserve">---------- | </text>
      <text x="-529.525" font-size="20px" y="2325.4604" clip-path="url(#clipPath2)" font-family="'Noto Sans Mono'" stroke-dasharray="none" stroke="none" xml:space="preserve">    ∂η     | [1]     [1]</text>
      <text x="-529.525" font-size="20px" y="2352.7004" clip-path="url(#clipPath2)" font-family="'Noto Sans Mono'" stroke-dasharray="none" stroke="none" xml:space="preserve">           |W    or b</text>
      <text x="-529.525" font-size="20px" y="2379.9402" clip-path="url(#clipPath2)" font-family="'Noto Sans Mono'" stroke-dasharray="none" stroke="none" xml:space="preserve"> </text>
      <text x="-529.525" font-size="20px" y="2407.1802" clip-path="url(#clipPath2)" font-family="'Noto Sans Mono'" stroke-dasharray="none" stroke="none" xml:space="preserve">                    [0]</text>
      <text x="-529.525" font-size="20px" y="2434.4202" clip-path="url(#clipPath2)" font-family="'Noto Sans Mono'" stroke-dasharray="none" stroke="none" xml:space="preserve">KNOWN, it's either A    = X or 1</text>
    </g>
    <g text-rendering="geometricPrecision" stroke-miterlimit="1.45" stroke-width="7" shape-rendering="geometricPrecision" transform="matrix(1,0,0,1,551,-366)" stroke-linecap="butt">
      <path fill="none" d="M247.9191 430.8946 L384.2395 430.8946" clip-path="url(#clipPath2)"/>
    </g>
    <g text-rendering="geometricPrecision" stroke-miterlimit="1.45" stroke-width="7" shape-rendering="geometricPrecision" transform="matrix(1,0,0,1,551,-366)" stroke-linecap="butt">
      <path d="M398.2395 430.8946 L377.2395 422.1446 L382.4895 430.8946 L377.2395 439.6446 Z" stroke="none" clip-path="url(#clipPath2)"/>
      <path fill="none" d="M991.7504 430.8946 L1128.0416 430.8946" clip-path="url(#clipPath2)"/>
      <path d="M1142.0416 430.8946 L1121.0416 422.1446 L1126.2916 430.8946 L1121.0416 439.6446 Z" clip-path="url(#clipPath2)" stroke="none"/>
      <path fill="none" d="M1481.5214 430.8946 L1617.8231 430.8946" clip-path="url(#clipPath2)"/>
      <path d="M1631.8231 430.8946 L1610.8231 422.1446 L1616.0731 430.8946 L1610.8231 439.6446 Z" clip-path="url(#clipPath2)" stroke="none"/>
      <path fill="none" d="M1871.3654 430.8946 L2007.6471 430.8946" clip-path="url(#clipPath2)"/>
      <path d="M2021.6471 430.8946 L2000.6471 422.1446 L2005.8971 430.8946 L2000.6471 439.6446 Z" clip-path="url(#clipPath2)" stroke="none"/>
      <path fill="none" d="M2261.134 430.8946 L2397.4568 430.8946" clip-path="url(#clipPath2)"/>
      <path d="M2411.4568 430.8946 L2390.4568 422.1446 L2395.7068 430.8946 L2390.4568 439.6446 Z" clip-path="url(#clipPath2)" stroke="none"/>
      <path fill="none" d="M-241.8911 430.8946 L-105.5897 430.8946" clip-path="url(#clipPath2)"/>
      <path d="M-91.5897 430.8946 L-112.5897 422.1446 L-107.3397 430.8946 L-112.5897 439.6446 Z" clip-path="url(#clipPath2)" stroke="none"/>
      <path fill="none" d="M2513.6343 479.8784 L2513.6343 567.2463" clip-path="url(#clipPath2)" stroke="rgb(204,153,255)"/>
      <path fill="rgb(204,153,255)" d="M2513.6343 581.2463 L2522.3843 560.2463 L2513.6343 565.4963 L2504.8843 560.2463 Z" clip-path="url(#clipPath2)" stroke="none"/>
      <path fill="none" d="M2141.4045 479.8983 L2141.4045 807.2421" clip-path="url(#clipPath2)" stroke="rgb(204,153,255)"/>
      <path fill="rgb(204,153,255)" d="M2141.4045 821.2421 L2150.1545 800.2421 L2141.4045 805.4921 L2132.6545 800.2421 Z" clip-path="url(#clipPath2)" stroke="none"/>
      <path fill="none" d="M1750.9823 479.9099 L1743.4578 1080.5057" clip-path="url(#clipPath2)" stroke="rgb(204,153,255)"/>
      <path fill="rgb(204,153,255)" d="M1743.2823 1094.5046 L1752.2948 1073.616 L1743.4797 1078.7559 L1734.7961 1073.3966 Z" clip-path="url(#clipPath2)" stroke="none"/>
      <path fill="none" d="M1311.7883 479.9182 L1311.7883 1356.0505" clip-path="url(#clipPath2)" stroke="rgb(204,153,255)"/>
      <path fill="rgb(204,153,255)" d="M1311.7883 1370.0505 L1320.5383 1349.0505 L1311.7883 1354.3005 L1303.0383 1349.0505 Z" clip-path="url(#clipPath2)" stroke="none"/>
      <path fill="none" d="M560.701 479.8821 L560.701 1633.7957" clip-path="url(#clipPath2)" stroke="rgb(204,153,255)"/>
      <path fill="rgb(204,153,255)" d="M560.701 1647.7957 L569.451 1626.7957 L560.701 1632.0457 L551.951 1626.7957 Z" clip-path="url(#clipPath2)" stroke="none"/>
      <path fill="none" d="M78.1684 479.9173 L78.1684 1882.209" clip-path="url(#clipPath2)" stroke="rgb(204,153,255)"/>
      <path fill="rgb(204,153,255)" d="M78.1684 1896.209 L86.9184 1875.209 L78.1684 1880.459 L69.4184 1875.209 Z" clip-path="url(#clipPath2)" stroke="none"/>
      <path fill="none" d="M2411.4658 738.5 L1526.2335 738.5 L1521.8585 739.125 L1518.7335 741 L1516.8585 744.125 L1516.2335 748.5 L1516.2335 2652.2944" clip-path="url(#clipPath2)" stroke="rgb(0,204,255)"/>
      <path fill="rgb(0,204,255)" d="M1516.2335 2666.2944 L1524.9835 2645.2944 L1516.2335 2650.5444 L1507.4835 2645.2944 Z" clip-path="url(#clipPath2)" stroke="none"/>
      <path fill="none" d="M2039.2202 970.6555 L1526.2335 970.6555 L1521.8585 971.2805 L1518.7335 973.1555 L1516.8585 976.2805 L1516.2335 980.6555 L1516.2335 2652.2656" clip-path="url(#clipPath2)" stroke="rgb(0,204,255)"/>
      <path fill="rgb(0,204,255)" d="M1516.2335 2666.2656 L1524.9835 2645.2656 L1516.2335 2650.5156 L1507.4835 2645.2656 Z" clip-path="url(#clipPath2)" stroke="none"/>
      <path fill="none" d="M1639.855 1242.6987 L1526.2335 1242.6987 L1521.8585 1243.3237 L1518.7335 1245.1987 L1516.8585 1248.3237 L1516.2335 1252.6987 L1516.2335 2652.2791" clip-path="url(#clipPath2)" stroke="rgb(0,204,255)"/>
      <path fill="rgb(0,204,255)" d="M1516.2335 2666.2791 L1524.9835 2645.2791 L1516.2335 2650.5291 L1507.4835 2645.2791 Z" clip-path="url(#clipPath2)" stroke="none"/>
      <path fill="none" d="M825.0862 479.888 L825.0862 2175.1387" clip-path="url(#clipPath2)" stroke="rgb(204,153,255)"/>
      <path fill="rgb(204,153,255)" d="M825.0862 2189.1387 L833.8362 2168.1387 L825.0862 2173.3887 L816.3362 2168.1387 Z" clip-path="url(#clipPath2)" stroke="none"/>
      <path fill="none" d="M1021.7072 2329.6733 L1506.2335 2329.6733 L1510.6085 2330.2983 L1513.7335 2332.1733 L1515.6085 2335.2983 L1516.2335 2339.6733 L1516.2335 2652.2659" clip-path="url(#clipPath2)" stroke="rgb(0,204,255)"/>
      <path fill="rgb(0,204,255)" d="M1516.2335 2666.2659 L1524.9835 2645.2659 L1516.2335 2650.5159 L1507.4835 2645.2659 Z" clip-path="url(#clipPath2)" stroke="none"/>
      <path fill="none" d="M2411.4644 683.1105 L323.2376 683.1105 L318.8626 683.7355 L315.7376 685.6105 L313.8626 688.7355 L313.2376 693.1105 L313.2376 2652.2693" clip-path="url(#clipPath2)" stroke="blue"/>
      <path fill="blue" d="M313.2376 2666.2693 L321.9876 2645.2693 L313.2376 2650.5193 L304.4876 2645.2693 Z" clip-path="url(#clipPath2)" stroke="none"/>
      <path fill="none" d="M2039.2228 923.1555 L323.2376 923.1555 L318.8626 923.7805 L315.7376 925.6555 L313.8626 928.7805 L313.2376 933.1555 L313.2376 2652.2593" clip-path="url(#clipPath2)" stroke="blue"/>
      <path fill="blue" d="M313.2376 2666.2593 L321.9876 2645.2593 L313.2376 2650.5093 L304.4876 2645.2593 Z" clip-path="url(#clipPath2)" stroke="none"/>
      <path fill="none" d="M1639.8444 1196.4487 L323.2376 1196.4487 L318.8626 1197.0737 L315.7376 1198.9487 L313.8626 1202.0737 L313.2376 1206.4487 L313.2376 2652.2175" clip-path="url(#clipPath2)" stroke="blue"/>
      <path fill="blue" d="M313.2376 2666.2175 L321.9876 2645.2175 L313.2376 2650.4675 L304.4876 2645.2175 Z" clip-path="url(#clipPath2)" stroke="none"/>
      <path fill="none" d="M1200.0426 1471.9884 L323.2376 1471.9884 L318.8626 1472.6134 L315.7376 1474.4884 L313.8626 1477.6134 L313.2376 1481.9884 L313.2376 2652.2493" clip-path="url(#clipPath2)" stroke="blue"/>
      <path fill="blue" d="M313.2376 2666.2493 L321.9876 2645.2493 L313.2376 2650.4993 L304.4876 2645.2493 Z" clip-path="url(#clipPath2)" stroke="none"/>
      <path fill="none" d="M448.9619 1749.6719 L323.2376 1749.6719 L318.8626 1750.2969 L315.7376 1752.1719 L313.8626 1755.2969 L313.2376 1759.6719 L313.2376 2652.2937" clip-path="url(#clipPath2)" stroke="blue"/>
      <path fill="blue" d="M313.2376 2666.2937 L321.9876 2645.2937 L313.2376 2650.5437 L304.4876 2645.2937 Z" clip-path="url(#clipPath2)" stroke="none"/>
      <path fill="none" d="M-298.7601 465.4015 L-312.0807 2175.1194" clip-path="url(#clipPath2)" stroke="rgb(204,153,255)"/>
      <path fill="rgb(204,153,255)" d="M-312.1897 2189.1189 L-303.2764 2168.1877 L-312.067 2173.3694 L-320.7758 2168.0513 Z" clip-path="url(#clipPath2)" stroke="none"/>
      <path fill="none" d="M-91.0728 2329.6733 L303.2376 2329.6733 L307.6126 2330.2983 L310.7376 2332.1733 L312.6126 2335.2983 L313.2376 2339.6733 L313.2376 2652.2659" clip-path="url(#clipPath2)" stroke="blue"/>
      <path fill="blue" d="M313.2376 2666.2659 L321.9876 2645.2659 L313.2376 2650.5159 L304.4876 2645.2659 Z" clip-path="url(#clipPath2)" stroke="none"/>
    </g>
  </g>
</svg>
